<?xml version="1.0" standalone="no"?>
<svg width="1440" height="320" xmlns="http://www.w3.org/2000/svg" version="1.1">
 <path fill="#0F172A" fill-opacity="1" d="M0,160L48,165.3C96,171,192,181,288,170.7C384,160,480,128,576,128C672,128,768,160,864,170.7C960,181,1056,171,1152,149.3C1248,128,1344,96,1392,80L1440,64L1440,320L1392,320C1344,320,1248,320,1152,320C1056,320,960,320,864,320C768,320,672,320,576,320C480,320,384,320,288,320C192,320,96,320,48,320L0,320Z"></path>
 <path fill="#1E293B" fill-opacity="0.5" d="M0,128L48,144C96,160,192,192,288,186.7C384,181,480,139,576,122.7C672,107,768,117,864,138.7C960,160,1056,192,1152,192C1248,192,1344,160,1392,144L1440,128L1440,320L1392,320C1344,320,1248,320,1152,320C1056,320,960,320,864,320C768,320,672,320,576,320C480,320,384,320,288,320C192,320,96,320,48,320L0,320Z"></path>
</svg>
